HIERARCHY
ROOT Hips
{
	OFFSET 0.000000 97.167313 0.000000
	CHANNELS 6 Xposition Yposition Zposition Xrotation Yrotation Zrotation
	JOINT Spine
	{
		OFFSET 0.000000 13.784798 0.064400
		CHANNELS 3 Xrotation Yrotation Zrotation
		JOINT Spine1
		{
			OFFSET 0.000000 12.037903 0.404700
			CHANNELS 3 Xrotation Yrotation Zrotation
			JOINT Spine2
			{
				OFFSET 0.000000 17.795601 0.420200
				CHANNELS 3 Xrotation Yrotation Zrotation
				JOINT Neck
				{
					OFFSET 0.000000 39.131302 11.954600
					CHANNELS 3 Xrotation Yrotation Zrotation
					JOINT Head
					{
						OFFSET 0.000000 14.456192 15.627699
						CHANNELS 3 Xrotation Yrotation Zrotation
						JOINT HeadTop_End
						{
							OFFSET 0.000000 15.703506 7.603401
							CHANNELS 3 Xrotation Yrotation Zrotation
							End Site
							{
								OFFSET 0.000000 17.447403 0.000000
							}
						}
					}
				}
				JOINT LeftShoulder
				{
					OFFSET 17.399500 24.608795 1.168800
					CHANNELS 3 Xrotation Yrotation Zrotation
					JOINT LeftArm
					{
						OFFSET 18.980635 5.765305 1.818600
						CHANNELS 3 Xrotation Yrotation Zrotation
						JOINT LeftForeArm
						{
							OFFSET 49.290169 0.000000 0.000000
							CHANNELS 3 Xrotation Yrotation Zrotation
							JOINT LeftHand
							{
								OFFSET 31.562012 0.000000 0.000000
								CHANNELS 3 Xrotation Yrotation Zrotation
								JOINT LeftHandThumb1
								{
									OFFSET 6.133995 -4.388519 7.076070
									CHANNELS 3 Xrotation Yrotation Zrotation
									JOINT LeftHandThumb2
									{
										OFFSET 6.037666 -3.485840 3.485847
										CHANNELS 3 Xrotation Yrotation Zrotation
										JOINT LeftHandThumb3
										{
											OFFSET 6.496506 -3.750763 3.750761
											CHANNELS 3 Xrotation Yrotation Zrotation
											JOINT LeftHandThumb4
											{
												OFFSET 5.616882 -3.242905 3.242910
												CHANNELS 3 Xrotation Yrotation Zrotation
												End Site
												{
													OFFSET -1.254608 7.132141 0.375429
												}
											}
										}
									}
								}
								JOINT LeftHandPinky1
								{
									OFFSET 18.920792 -0.453171 -11.426712
									CHANNELS 3 Xrotation Yrotation Zrotation
									JOINT LeftHandPinky2
									{
										OFFSET 4.919586 0.000000 0.000000
										CHANNELS 3 Xrotation Yrotation Zrotation
										JOINT LeftHandPinky3
										{
											OFFSET 5.233047 0.000000 0.000000
											CHANNELS 3 Xrotation Yrotation Zrotation
											JOINT LeftHandPinky4
											{
												OFFSET 5.571716 0.000000 0.000000
												CHANNELS 3 Xrotation Yrotation Zrotation
												End Site
												{
													OFFSET -3.459808 4.342407 -0.466164
												}
											}
										}
									}
								}
								JOINT LeftHandRing1
								{
									OFFSET 22.726120 -0.094986 -6.500475
									CHANNELS 3 Xrotation Yrotation Zrotation
									JOINT LeftHandRing2
									{
										OFFSET 6.408615 0.000000 0.000000
										CHANNELS 3 Xrotation Yrotation Zrotation
										JOINT LeftHandRing3
										{
											OFFSET 6.150223 0.000000 0.000000
											CHANNELS 3 Xrotation Yrotation Zrotation
											JOINT LeftHandRing4
											{
												OFFSET 6.145386 0.000000 0.000000
												CHANNELS 3 Xrotation Yrotation Zrotation
												End Site
												{
													OFFSET -3.671402 4.923981 -0.202372
												}
											}
										}
									}
								}
								JOINT LeftHandMiddle1
								{
									OFFSET 23.373947 0.000000 0.000001
									CHANNELS 3 Xrotation Yrotation Zrotation
									JOINT LeftHandMiddle2
									{
										OFFSET 6.996567 0.000000 0.000000
										CHANNELS 3 Xrotation Yrotation Zrotation
										JOINT LeftHandMiddle3
										{
											OFFSET 7.015945 0.000000 0.000000
											CHANNELS 3 Xrotation Yrotation Zrotation
											JOINT LeftHandMiddle4
											{
												OFFSET 7.721573 0.000000 0.000000
												CHANNELS 3 Xrotation Yrotation Zrotation
												End Site
												{
													OFFSET -4.651108 6.158463 0.251582
												}
											}
										}
									}
								}
								JOINT LeftHandIndex1
								{
									OFFSET 21.310577 -0.490082 6.209344
									CHANNELS 3 Xrotation Yrotation Zrotation
									JOINT LeftHandIndex2
									{
										OFFSET 7.536453 0.000000 0.000000
										CHANNELS 3 Xrotation Yrotation Zrotation
										JOINT LeftHandIndex3
										{
											OFFSET 7.512344 0.000000 0.000000
											CHANNELS 3 Xrotation Yrotation Zrotation
											JOINT LeftHandIndex4
											{
												OFFSET 10.212402 0.000000 0.000001
												CHANNELS 3 Xrotation Yrotation Zrotation
												End Site
												{
													OFFSET -5.180801 8.690506 1.388433
												}
											}
										}
									}
								}
							}
						}
					}
				}
				JOINT RightShoulder
				{
					OFFSET -17.399500 24.608795 1.168800
					CHANNELS 3 Xrotation Yrotation Zrotation
					JOINT RightArm
					{
						OFFSET -18.980635 5.765305 1.818600
						CHANNELS 3 Xrotation Yrotation Zrotation
						JOINT RightForeArm
						{
							OFFSET -49.290169 0.000000 0.000000
							CHANNELS 3 Xrotation Yrotation Zrotation
							JOINT RightHand
							{
								OFFSET -31.562012 0.000000 0.000000
								CHANNELS 3 Xrotation Yrotation Zrotation
								JOINT RightHandThumb1
								{
									OFFSET -6.133995 -4.388519 7.076070
									CHANNELS 3 Xrotation Yrotation Zrotation
									JOINT RightHandThumb2
									{
										OFFSET -6.037666 -3.485840 3.485847
										CHANNELS 3 Xrotation Yrotation Zrotation
										JOINT RightHandThumb3
										{
											OFFSET -6.496506 -3.750763 3.750761
											CHANNELS 3 Xrotation Yrotation Zrotation
											JOINT RightHandThumb4
											{
												OFFSET -5.616882 -3.242905 3.242910
												CHANNELS 3 Xrotation Yrotation Zrotation
												End Site
												{
													OFFSET 1.254608 7.132141 0.375429
												}
											}
										}
									}
								}
								JOINT RightHandIndex1
								{
									OFFSET -21.310577 -0.490082 6.209344
									CHANNELS 3 Xrotation Yrotation Zrotation
									JOINT RightHandIndex2
									{
										OFFSET -7.536453 0.000000 0.000000
										CHANNELS 3 Xrotation Yrotation Zrotation
										JOINT RightHandIndex3
										{
											OFFSET -7.512344 0.000000 0.000000
											CHANNELS 3 Xrotation Yrotation Zrotation
											JOINT RightHandIndex4
											{
												OFFSET -10.212402 0.000000 0.000001
												CHANNELS 3 Xrotation Yrotation Zrotation
												End Site
												{
													OFFSET 5.180801 8.690506 1.388433
												}
											}
										}
									}
								}
								JOINT RightHandMiddle1
								{
									OFFSET -23.373947 0.000000 0.000001
									CHANNELS 3 Xrotation Yrotation Zrotation
									JOINT RightHandMiddle2
									{
										OFFSET -6.996567 0.000000 0.000000
										CHANNELS 3 Xrotation Yrotation Zrotation
										JOINT RightHandMiddle3
										{
											OFFSET -7.015945 0.000000 0.000000
											CHANNELS 3 Xrotation Yrotation Zrotation
											JOINT RightHandMiddle4
											{
												OFFSET -7.721573 0.000000 0.000000
												CHANNELS 3 Xrotation Yrotation Zrotation
												End Site
												{
													OFFSET 4.651108 6.158463 0.251582
												}
											}
										}
									}
								}
								JOINT RightHandRing1
								{
									OFFSET -22.726120 -0.094986 -6.500475
									CHANNELS 3 Xrotation Yrotation Zrotation
									JOINT RightHandRing2
									{
										OFFSET -6.408615 0.000000 0.000000
										CHANNELS 3 Xrotation Yrotation Zrotation
										JOINT RightHandRing3
										{
											OFFSET -6.150223 0.000000 0.000000
											CHANNELS 3 Xrotation Yrotation Zrotation
											JOINT RightHandRing4
											{
												OFFSET -6.145386 0.000000 0.000000
												CHANNELS 3 Xrotation Yrotation Zrotation
												End Site
												{
													OFFSET 3.671402 4.923981 -0.202372
												}
											}
										}
									}
								}
								JOINT RightHandPinky1
								{
									OFFSET -18.920792 -0.453171 -11.426712
									CHANNELS 3 Xrotation Yrotation Zrotation
									JOINT RightHandPinky2
									{
										OFFSET -4.919586 0.000000 0.000000
										CHANNELS 3 Xrotation Yrotation Zrotation
										JOINT RightHandPinky3
										{
											OFFSET -5.233047 0.000000 0.000000
											CHANNELS 3 Xrotation Yrotation Zrotation
											JOINT RightHandPinky4
											{
												OFFSET -5.571716 0.000000 0.000000
												CHANNELS 3 Xrotation Yrotation Zrotation
												End Site
												{
													OFFSET 3.459808 4.342407 -0.466164
												}
											}
										}
									}
								}
							}
						}
					}
				}
			}
		}
	}
	JOINT LeftUpLeg
	{
		OFFSET 19.899099 -7.885101 -3.429500
		CHANNELS 3 Xrotation Yrotation Zrotation
		JOINT LeftLeg
		{
			OFFSET 1.745560 -36.997807 10.304700
			CHANNELS 3 Xrotation Yrotation Zrotation
			JOINT LeftFoot
			{
				OFFSET -1.745558 -29.803308 -13.615400
				CHANNELS 3 Xrotation Yrotation Zrotation
				JOINT LeftToeBase
				{
					OFFSET 1.181900 -18.539904 15.226099
					CHANNELS 3 Xrotation Yrotation Zrotation
					JOINT LeftToe_End
					{
						OFFSET -0.863701 1.402801 16.534700
						CHANNELS 3 Xrotation Yrotation Zrotation
						End Site
						{
							OFFSET 0.000000 16.616566 0.000000
						}
					}
				}
			}
		}
	}
	JOINT RightUpLeg
	{
		OFFSET -19.899099 -7.885101 -3.429500
		CHANNELS 3 Xrotation Yrotation Zrotation
		JOINT RightLeg
		{
			OFFSET -1.745560 -36.997807 10.304700
			CHANNELS 3 Xrotation Yrotation Zrotation
			JOINT RightFoot
			{
				OFFSET 1.745558 -29.803308 -13.615400
				CHANNELS 3 Xrotation Yrotation Zrotation
				JOINT RightToeBase
				{
					OFFSET -1.181900 -18.539904 15.226099
					CHANNELS 3 Xrotation Yrotation Zrotation
					JOINT RightToe_End
					{
						OFFSET 0.863701 1.402801 16.534700
						CHANNELS 3 Xrotation Yrotation Zrotation
						End Site
						{
							OFFSET 0.000000 16.616566 0.000000
						}
					}
				}
			}
		}
	}
}
MOTION
Frames: 5
Frame Time: 0.033333
-0.467193 72.008171 0.691431 -5.399177 -46.316657 -0.344530 9.440928 7.291884 -1.528067 2.187716 0.989897 -0.915631 2.202828 0.982776 -0.894153 0.084651 13.220563 4.538678 8.920920 20.138147 -4.130235 -0.000001 0.000000 -0.000000 1.117176 3.546351 -8.633308 -53.487020 4.935500 -51.502987 0.000170 -106.358080 0.000149 1.988607 -7.706152 -15.869250 -6.141225 -11.690803 -6.761691 9.914154 42.595505 3.409851 -0.422820 8.108077 27.509113 0.000002 -0.000001 0.000000 -3.762446 9.063691 -45.253825 5.342540 5.828998 -85.005324 8.716844 5.103349 -119.369181 -0.000000 0.000000 -0.000006 0.469724 4.966820 -39.799434 8.181041 5.368601 -113.502998 3.200498 5.218122 -63.022982 -0.000000 0.000003 0.000007 -0.461470 3.841588 -39.722673 6.450753 5.820355 -95.892857 2.182888 4.561568 -51.127733 0.000000 -0.000002 0.000004 0.255309 3.378203 -45.814344 5.654102 5.847765 -88.067455 2.162149 4.544809 -50.866382 -0.000001 0.000005 0.000002 3.036129 13.027199 -5.371409 -48.713715 27.172830 83.457057 -0.000079 105.988280 0.000100 -8.345377 17.548098 8.775663 -7.341084 13.749657 7.412312 9.855826 -44.489079 -3.903218 -0.115789 -14.513073 -28.973881 0.000002 0.000001 0.000001 -0.124371 -2.384776 45.108874 4.500590 -4.654539 88.071150 1.723228 -3.618363 50.920109 -0.000001 0.000000 0.000001 -0.761624 -2.932907 39.031058 5.133887 -4.632757 95.881629 1.739739 -3.631698 51.181394 -0.000000 0.000001 -0.000004 0.154762 -4.068818 39.122661 6.509738 -4.273586 113.462870 2.549589 -4.153914 63.067351 0.000001 -0.000001 -0.000005 -4.198869 -8.025498 44.637786 4.252907 -4.639623 85.014811 6.935971 -4.062642 119.322285 -0.000002 -0.000002 0.000002 -33.569693 4.026658 22.749154 57.659460 -10.178403 2.632325 -21.483923 -5.744527 -18.032980 -1.594040 0.000002 -0.000001 -0.000000 -0.000002 -0.000000 -13.809749 -10.722548 -37.479242 58.014158 0.788658 -2.915251 -32.477235 -13.075313 26.174077 -0.013010 0.000013 0.000004 0.000000 -0.000000 -0.000000 
-0.291659 72.003891 0.790269 -4.250764 -45.236787 0.777278 9.414892 7.673946 -1.102888 2.208428 1.085692 -0.761503 2.223990 1.078639 -0.741574 0.157612 12.949684 4.512748 8.652286 18.796426 -3.631017 0.000000 -0.000000 0.000000 1.263040 2.088385 -8.599027 -55.570621 6.287436 -51.294461 -0.000065 -108.227858 -0.000082 0.648950 -6.783923 -16.397529 -5.915591 -11.533737 -6.679595 9.966928 42.696711 3.381527 -0.484188 7.997521 27.521443 0.000001 0.000002 -0.000002 -4.098481 9.137652 -45.545942 5.325362 5.827470 -84.836188 8.719428 5.101890 -119.398332 -0.000000 -0.000002 -0.000001 0.469366 4.966077 -39.791617 8.185805 5.366535 -113.553855 3.181755 5.208577 -62.816731 -0.000001 -0.000001 -0.000002 -0.462928 3.835253 -39.665962 6.426601 5.822787 -95.654689 2.174033 4.554439 -51.016343 0.000001 -0.000001 0.000004 0.447653 3.383253 -45.692446 5.663429 5.848067 -88.158905 2.157423 4.540971 -50.806755 -0.000001 0.000001 -0.000003 3.100607 13.407107 -5.423738 -49.510966 27.499440 82.989920 -0.000066 105.233578 0.000081 -8.412687 19.969323 7.892156 -7.361897 14.211137 6.703709 9.855812 -44.489089 -3.903258 -0.162145 -14.376763 -28.963123 -0.000000 0.000000 0.000003 -0.508606 -2.181386 44.049031 4.509801 -4.654837 88.184531 1.709172 -3.606932 50.697086 -0.000001 0.000000 0.000001 -0.867181 -2.779937 38.774274 5.124847 -4.633679 95.769668 1.719355 -3.615239 50.858794 0.000001 0.000001 -0.000004 -0.005956 -3.832537 38.317190 6.500535 -4.277551 113.339401 2.547807 -4.153020 63.042830 -0.000000 0.000001 0.000004 -3.618419 -7.859685 43.121901 4.252554 -4.639602 85.010440 6.936572 -4.062307 119.330672 0.000001 0.000002 0.000008 -34.858752 3.304047 21.682543 57.450401 -9.953330 2.583321 -20.725137 -5.974597 -17.880078 -1.594040 0.000009 -0.000001 -0.000000 -0.000002 0.000000 -13.888630 -11.082649 -38.003251 57.763880 0.635490 -2.521676 -32.428253 -13.572684 26.464804 -0.013252 -0.000007 0.000005 0.000000 0.000001 -0.000001 
-0.111236 72.172096 0.987295 -3.094910 -44.064211 2.305620 9.264213 7.848346 -0.864587 2.210965 1.139121 -0.716265 2.226659 1.132610 -0.697279 0.142534 12.711870 4.646008 8.311802 17.835581 -3.008470 -0.000000 -0.000000 0.000000 0.788629 1.812942 -7.490328 -58.880301 8.813282 -52.781410 -0.000095 -109.543284 -0.000123 -0.406843 -5.777386 -17.731219 -5.578990 -11.332898 -6.482316 10.081673 42.925096 3.314606 -0.592522 7.801526 27.543115 -0.000001 0.000001 -0.000002 -4.438770 9.182537 -45.664743 5.282530 5.823465 -84.414219 8.696088 5.114920 -119.136066 0.000003 -0.000003 -0.000006 0.459297 4.944966 -39.569653 8.192260 5.363740 -113.622888 3.144820 5.189524 -62.409139 -0.000000 0.000002 0.000003 -0.467897 3.813580 -39.471701 6.393644 5.825930 -95.329886 2.166398 4.548265 -50.920057 0.000000 -0.000001 0.000006 0.626422 3.383128 -45.517521 5.643872 5.847407 -87.967106 2.146596 4.532153 -50.669946 0.000000 -0.000000 -0.000001 3.972602 15.921260 -4.093424 -51.854475 28.380780 80.027510 0.000089 102.618688 -0.000064 -9.450763 23.880945 7.002516 -7.363288 14.340020 6.408098 9.855818 -44.489079 -3.903238 -0.285758 -14.153397 -28.981387 0.000001 0.000001 0.000002 -0.767510 -1.972671 42.429880 4.536631 -4.655612 88.515195 1.688892 -3.590265 50.373987 -0.000001 -0.000003 -0.000001 -0.931901 -2.665893 38.406318 5.106275 -4.635511 95.539846 1.704854 -3.603410 50.628470 0.000001 0.000000 -0.000004 -0.090040 -3.669669 37.229227 6.481250 -4.285811 113.081111 2.541202 -4.149658 62.951402 0.000001 0.000002 -0.000003 -3.333938 -7.732634 41.979613 4.240324 -4.638511 84.859145 6.936859 -4.062146 119.334825 0.000001 -0.000001 0.000000 -35.759278 2.773531 20.014614 56.642868 -9.475422 2.412467 -19.763709 -6.240894 -17.686700 -1.594040 0.000005 -0.000001 -0.000000 0.000000 0.000000 -14.168626 -11.684522 -39.119478 57.260573 0.848160 -2.176153 -32.257829 -14.113397 26.630190 -0.013230 -0.000007 -0.000004 0.000000 0.000001 -0.000000 
0.083189 72.452110 1.289634 -2.157159 -42.812217 4.132054 8.960817 8.211518 -0.573636 2.166547 1.263252 -0.701247 2.182425 1.258008 -0.684320 0.036043 12.392532 4.882441 7.821647 16.633469 -2.255294 0.000001 -0.000000 -0.000001 0.059375 1.143341 -5.730719 -62.871270 12.094002 -54.566876 -0.000088 -110.286163 -0.000116 -1.911553 -4.882469 -19.586329 -5.401975 -11.331945 -6.130725 10.141477 43.049292 3.276471 -0.670655 7.660266 27.558333 0.000002 -0.000003 0.000003 -4.908871 9.138096 -45.278253 5.246274 5.819838 -84.056816 8.648549 5.141036 -118.604172 0.000002 0.000001 -0.000000 0.450614 4.926542 -39.376416 8.192431 5.363661 -113.624773 3.120395 5.176738 -62.138711 -0.000001 0.000002 0.000005 -0.471787 3.796284 -39.317014 6.358374 5.829103 -94.982612 2.163176 4.545659 -50.879483 -0.000000 -0.000000 0.000006 0.720931 3.369954 -45.273004 5.628920 5.846859 -87.820325 2.143191 4.529367 -50.626769 -0.000001 0.000003 0.000002 4.913623 19.308987 -2.965015 -55.874885 29.277626 76.709636 0.000041 99.064586 0.000007 -10.783344 28.562080 6.685204 -7.462916 14.172740 6.723367 9.855821 -44.489089 -3.903234 -0.429349 -13.939894 -29.017403 -0.000001 -0.000001 -0.000000 -0.632640 -1.956630 41.132041 4.581044 -4.656551 89.062299 1.668801 -3.573570 50.052456 -0.000001 0.000000 0.000002 -0.932406 -2.649722 38.234487 5.088136 -4.637227 95.315399 1.704490 -3.603113 50.622695 0.000000 0.000001 -0.000001 -0.081447 -3.641264 36.457781 6.463142 -4.293451 112.839110 2.554092 -4.156207 63.129601 0.000000 0.000001 -0.000005 -3.484365 -7.664586 41.754415 4.222487 -4.636872 84.638502 6.946278 -4.056850 119.467877 0.000001 0.000000 0.000007 -36.162454 2.497319 17.747188 55.352089 -8.791918 2.161702 -18.678197 -6.542271 -17.422110 -1.594040 0.000005 -0.000001 -0.000000 -0.000000 0.000000 -14.465292 -12.391631 -40.928256 56.612610 1.168682 -1.934930 -31.987463 -14.603105 26.975854 -0.013173 0.000005 0.000002 0.000000 -0.000001 -0.000000 
0.286859 72.695671 1.778297 -1.589778 -41.461181 6.375235 8.328016 9.193278 0.038436 2.063683 1.580047 -0.618333 2.080303 1.576761 -0.606327 -0.245408 11.851970 5.159243 7.506865 14.366132 -1.337559 -0.000001 0.000000 -0.000001 -0.142830 -1.674531 -4.440866 -67.641132 14.149886 -54.959032 -0.000057 -109.480535 -0.000094 -3.670333 -4.442672 -21.054217 -5.792969 -11.769546 -5.869462 9.861873 42.492847 3.439045 -0.666155 7.668918 27.557150 -0.000001 -0.000001 0.000001 -5.631371 8.975132 -44.287059 5.287460 5.823955 -84.462884 8.683147 5.122095 -118.991020 0.000002 0.000000 -0.000002 0.460051 4.946538 -39.586257 8.183000 5.367762 -113.523925 3.115049 5.173920 -62.079528 -0.000000 0.000002 0.000005 -0.472279 3.794111 -39.297572 6.329138 5.831563 -94.694747 2.160030 4.543108 -50.839799 -0.000000 0.000000 0.000008 0.809544 3.333096 -44.752427 5.615288 5.846335 -87.686549 2.149865 4.534825 -50.711306 -0.000000 0.000003 0.000002 5.577978 22.240127 -2.697220 -62.272870 29.721794 75.329050 -0.000904 95.038066 0.000946 -12.278409 32.927912 8.596559 -7.637567 14.708194 6.286184 9.855821 -44.489079 -3.903225 -0.466696 -13.766290 -28.986910 0.000001 -0.000001 0.000001 -0.519093 -1.862940 39.618167 4.642049 -4.657144 89.813757 1.655452 -3.562381 49.838138 -0.000000 -0.000001 -0.000001 -0.961755 -2.606917 38.175966 5.094031 -4.636681 95.388311 1.725580 -3.620286 50.957443 -0.000000 0.000000 -0.000008 -0.173568 -3.515987 36.449318 6.465097 -4.292635 112.865222 2.623838 -4.190717 64.087849 -0.000000 -0.000000 -0.000005 -3.472342 -7.437768 40.164501 4.237364 -4.638236 84.822569 6.985123 -4.034715 120.018404 0.000001 0.000001 0.000002 -35.940210 2.424022 14.615845 53.793532 -7.793485 1.892723 -17.676468 -6.837104 -17.129170 -1.594040 0.000005 -0.000001 -0.000000 -0.000002 -0.000000 -14.783938 -13.196025 -43.969835 56.040240 1.502066 -1.845005 -31.735747 -14.837080 27.865019 -0.014087 0.000017 0.000004 0.000000 0.000002 -0.000000 
